<svg width="171" height="89" viewBox="0 0 171 89" fill="none" xmlns="http://www.w3.org/2000/svg">
<path d="M13.896 9.8C16.128 9.8 18.06 10.172 19.692 10.916C21.348 11.66 22.62 12.716 23.508 14.084C24.396 15.452 24.84 17.072 24.84 18.944C24.84 20.792 24.396 22.412 23.508 23.804C22.62 25.172 21.348 26.228 19.692 26.972C18.06 27.692 16.128 28.052 13.896 28.052H8.82V35H2.988V9.8H13.896ZM13.572 23.3C15.324 23.3 16.656 22.928 17.568 22.184C18.48 21.416 18.936 20.336 18.936 18.944C18.936 17.528 18.48 16.448 17.568 15.704C16.656 14.936 15.324 14.552 13.572 14.552H8.82V23.3H13.572ZM45.0596 35L40.1996 27.98H39.9116H34.8356V35H29.0036V9.8H39.9116C42.1436 9.8 44.0756 10.172 45.7076 10.916C47.3636 11.66 48.6356 12.716 49.5236 14.084C50.4116 15.452 50.8556 17.072 50.8556 18.944C50.8556 20.816 50.3996 22.436 49.4876 23.804C48.5996 25.148 47.3276 26.18 45.6716 26.9L51.3236 35H45.0596ZM44.9516 18.944C44.9516 17.528 44.4956 16.448 43.5836 15.704C42.6716 14.936 41.3396 14.552 39.5876 14.552H34.8356V23.336H39.5876C41.3396 23.336 42.6716 22.952 43.5836 22.184C44.4956 21.416 44.9516 20.336 44.9516 18.944ZM55.4763 9.8H61.3083V35H55.4763V9.8ZM85.7928 21.896C87.2328 22.352 88.3608 23.12 89.1768 24.2C89.9928 25.256 90.4008 26.564 90.4008 28.124C90.4008 30.332 89.5368 32.036 87.8088 33.236C86.1048 34.412 83.6088 35 80.3208 35H67.2888V9.8H79.6008C82.6728 9.8 85.0248 10.388 86.6568 11.564C88.3128 12.74 89.1408 14.336 89.1408 16.352C89.1408 17.576 88.8408 18.668 88.2408 19.628C87.6648 20.588 86.8488 21.344 85.7928 21.896ZM73.0848 14.192V20.132H78.8808C80.3208 20.132 81.4128 19.88 82.1568 19.376C82.9008 18.872 83.2728 18.128 83.2728 17.144C83.2728 16.16 82.9008 15.428 82.1568 14.948C81.4128 14.444 80.3208 14.192 78.8808 14.192H73.0848ZM79.8888 30.608C81.4248 30.608 82.5768 30.356 83.3448 29.852C84.1368 29.348 84.5328 28.568 84.5328 27.512C84.5328 25.424 82.9848 24.38 79.8888 24.38H73.0848V30.608H79.8888ZM106.012 35.432C102.412 35.432 99.6041 34.436 97.5881 32.444C95.5961 30.452 94.6001 27.608 94.6001 23.912V9.8H100.432V23.696C100.432 28.208 102.304 30.464 106.048 30.464C107.872 30.464 109.264 29.924 110.224 28.844C111.184 27.74 111.664 26.024 111.664 23.696V9.8H117.424V23.912C117.424 27.608 116.416 30.452 114.4 32.444C112.408 34.436 109.612 35.432 106.012 35.432ZM123.187 9.8H129.019V30.248H141.655V35H123.187V9.8ZM161.721 29.6H150.021L147.789 35H141.813L153.045 9.8H158.805L170.073 35H163.953L161.721 29.6ZM159.885 25.172L155.889 15.524L151.893 25.172H159.885Z" fill="#7C0A02"/>
<rect y="41" width="171" height="33" fill="#7C0A02"/>
<path d="M16.6867 58.216H6.12675C6.22275 59.528 6.72675 60.592 7.63875 61.408C8.55075 62.208 9.70275 62.608 11.0947 62.608C11.8787 62.608 12.5987 62.472 13.2547 62.2C13.9107 61.912 14.4787 61.496 14.9587 60.952L15.9187 62.056C15.3587 62.728 14.6547 63.24 13.8067 63.592C12.9747 63.944 12.0547 64.12 11.0467 64.12C9.75075 64.12 8.59875 63.848 7.59075 63.304C6.59875 62.744 5.82275 61.976 5.26275 61C4.70275 60.024 4.42275 58.92 4.42275 57.688C4.42275 56.456 4.68675 55.352 5.21475 54.376C5.75875 53.4 6.49475 52.64 7.42275 52.096C8.36675 51.552 9.42275 51.28 10.5907 51.28C11.7587 51.28 12.8067 51.552 13.7347 52.096C14.6627 52.64 15.3907 53.4 15.9187 54.376C16.4467 55.336 16.7107 56.44 16.7107 57.688L16.6867 58.216ZM10.5907 52.744C9.37475 52.744 8.35075 53.136 7.51875 53.92C6.70275 54.688 6.23875 55.696 6.12675 56.944H15.0787C14.9667 55.696 14.4947 54.688 13.6627 53.92C12.8467 53.136 11.8227 52.744 10.5907 52.744ZM28.2911 51.28C29.8751 51.28 31.1311 51.744 32.0591 52.672C33.0031 53.584 33.4751 54.92 33.4751 56.68V64H31.7711V56.848C31.7711 55.536 31.4431 54.536 30.7871 53.848C30.1311 53.16 29.1951 52.816 27.9791 52.816C26.6191 52.816 25.5391 53.224 24.7391 54.04C23.9551 54.84 23.5631 55.952 23.5631 57.376V64H21.8591V51.376H23.4911V53.704C23.9551 52.936 24.5951 52.344 25.4111 51.928C26.2431 51.496 27.2031 51.28 28.2911 51.28ZM51.5162 51.376V62.464C51.5162 64.608 50.9882 66.192 49.9322 67.216C48.8922 68.256 47.3162 68.776 45.2042 68.776C44.0362 68.776 42.9242 68.6 41.8682 68.248C40.8282 67.912 39.9802 67.44 39.3242 66.832L40.1882 65.536C40.7962 66.08 41.5322 66.504 42.3962 66.808C43.2762 67.112 44.1962 67.264 45.1562 67.264C46.7562 67.264 47.9322 66.888 48.6842 66.136C49.4362 65.4 49.8122 64.248 49.8122 62.68V61.072C49.2842 61.872 48.5882 62.48 47.7242 62.896C46.8762 63.312 45.9322 63.52 44.8922 63.52C43.7082 63.52 42.6282 63.264 41.6522 62.752C40.6922 62.224 39.9322 61.496 39.3722 60.568C38.8282 59.624 38.5562 58.56 38.5562 57.376C38.5562 56.192 38.8282 55.136 39.3722 54.208C39.9322 53.28 40.6922 52.56 41.6522 52.048C42.6122 51.536 43.6922 51.28 44.8922 51.28C45.9642 51.28 46.9322 51.496 47.7962 51.928C48.6602 52.36 49.3562 52.984 49.8842 53.8V51.376H51.5162ZM45.0602 62.008C45.9722 62.008 46.7962 61.816 47.5322 61.432C48.2682 61.032 48.8362 60.48 49.2362 59.776C49.6522 59.072 49.8602 58.272 49.8602 57.376C49.8602 56.48 49.6522 55.688 49.2362 55C48.8362 54.296 48.2682 53.752 47.5322 53.368C46.8122 52.968 45.9882 52.768 45.0602 52.768C44.1482 52.768 43.3242 52.96 42.5882 53.344C41.8682 53.728 41.3002 54.272 40.8842 54.976C40.4842 55.68 40.2842 56.48 40.2842 57.376C40.2842 58.272 40.4842 59.072 40.8842 59.776C41.3002 60.48 41.8682 61.032 42.5882 61.432C43.3242 61.816 44.1482 62.008 45.0602 62.008ZM57.9613 51.376H59.6653V64H57.9613V51.376ZM58.8253 48.616C58.4733 48.616 58.1773 48.496 57.9373 48.256C57.6973 48.016 57.5773 47.728 57.5773 47.392C57.5773 47.072 57.6973 46.792 57.9373 46.552C58.1773 46.312 58.4733 46.192 58.8253 46.192C59.1773 46.192 59.4733 46.312 59.7133 46.552C59.9533 46.776 60.0733 47.048 60.0733 47.368C60.0733 47.72 59.9533 48.016 59.7133 48.256C59.4733 48.496 59.1773 48.616 58.8253 48.616ZM72.5186 51.28C74.1026 51.28 75.3586 51.744 76.2866 52.672C77.2306 53.584 77.7026 54.92 77.7026 56.68V64H75.9986V56.848C75.9986 55.536 75.6706 54.536 75.0146 53.848C74.3586 53.16 73.4226 52.816 72.2066 52.816C70.8466 52.816 69.7666 53.224 68.9666 54.04C68.1826 54.84 67.7906 55.952 67.7906 57.376V64H66.0866V51.376H67.7186V53.704C68.1826 52.936 68.8226 52.344 69.6386 51.928C70.4706 51.496 71.4306 51.28 72.5186 51.28ZM95.0477 58.216H84.4877C84.5837 59.528 85.0877 60.592 85.9997 61.408C86.9117 62.208 88.0637 62.608 89.4557 62.608C90.2397 62.608 90.9597 62.472 91.6157 62.2C92.2717 61.912 92.8397 61.496 93.3197 60.952L94.2797 62.056C93.7197 62.728 93.0157 63.24 92.1677 63.592C91.3357 63.944 90.4157 64.12 89.4077 64.12C88.1117 64.12 86.9597 63.848 85.9517 63.304C84.9597 62.744 84.1837 61.976 83.6237 61C83.0637 60.024 82.7837 58.92 82.7837 57.688C82.7837 56.456 83.0477 55.352 83.5757 54.376C84.1197 53.4 84.8557 52.64 85.7837 52.096C86.7277 51.552 87.7837 51.28 88.9517 51.28C90.1197 51.28 91.1677 51.552 92.0957 52.096C93.0237 52.64 93.7517 53.4 94.2797 54.376C94.8077 55.336 95.0717 56.44 95.0717 57.688L95.0477 58.216ZM88.9517 52.744C87.7357 52.744 86.7117 53.136 85.8797 53.92C85.0637 54.688 84.5997 55.696 84.4877 56.944H93.4397C93.3277 55.696 92.8557 54.688 92.0237 53.92C91.2077 53.136 90.1837 52.744 88.9517 52.744ZM111.212 58.216H100.652C100.748 59.528 101.252 60.592 102.164 61.408C103.076 62.208 104.228 62.608 105.62 62.608C106.404 62.608 107.124 62.472 107.78 62.2C108.436 61.912 109.004 61.496 109.484 60.952L110.444 62.056C109.884 62.728 109.18 63.24 108.332 63.592C107.5 63.944 106.58 64.12 105.572 64.12C104.276 64.12 103.124 63.848 102.116 63.304C101.124 62.744 100.348 61.976 99.7881 61C99.2281 60.024 98.9481 58.92 98.9481 57.688C98.9481 56.456 99.2121 55.352 99.7401 54.376C100.284 53.4 101.02 52.64 101.948 52.096C102.892 51.552 103.948 51.28 105.116 51.28C106.284 51.28 107.332 51.552 108.26 52.096C109.188 52.64 109.916 53.4 110.444 54.376C110.972 55.336 111.236 56.44 111.236 57.688L111.212 58.216ZM105.116 52.744C103.9 52.744 102.876 53.136 102.044 53.92C101.228 54.688 100.764 55.696 100.652 56.944H109.604C109.492 55.696 109.02 54.688 108.188 53.92C107.372 53.136 106.348 52.744 105.116 52.744ZM118.016 53.848C118.416 53 119.008 52.36 119.792 51.928C120.592 51.496 121.576 51.28 122.744 51.28V52.936L122.336 52.912C121.008 52.912 119.968 53.32 119.216 54.136C118.464 54.952 118.088 56.096 118.088 57.568V64H116.384V51.376H118.016V53.848ZM127.51 51.376H129.214V64H127.51V51.376ZM128.374 48.616C128.022 48.616 127.726 48.496 127.486 48.256C127.246 48.016 127.126 47.728 127.126 47.392C127.126 47.072 127.246 46.792 127.486 46.552C127.726 46.312 128.022 46.192 128.374 46.192C128.726 46.192 129.022 46.312 129.262 46.552C129.502 46.776 129.622 47.048 129.622 47.368C129.622 47.72 129.502 48.016 129.262 48.256C129.022 48.496 128.726 48.616 128.374 48.616ZM142.067 51.28C143.651 51.28 144.907 51.744 145.835 52.672C146.779 53.584 147.251 54.92 147.251 56.68V64H145.547V56.848C145.547 55.536 145.219 54.536 144.563 53.848C143.907 53.16 142.971 52.816 141.755 52.816C140.395 52.816 139.315 53.224 138.515 54.04C137.731 54.84 137.339 55.952 137.339 57.376V64H135.635V51.376H137.267V53.704C137.731 52.936 138.371 52.344 139.187 51.928C140.019 51.496 140.979 51.28 142.067 51.28ZM165.292 51.376V62.464C165.292 64.608 164.764 66.192 163.708 67.216C162.668 68.256 161.092 68.776 158.98 68.776C157.812 68.776 156.7 68.6 155.644 68.248C154.604 67.912 153.756 67.44 153.1 66.832L153.964 65.536C154.572 66.08 155.308 66.504 156.172 66.808C157.052 67.112 157.972 67.264 158.932 67.264C160.532 67.264 161.708 66.888 162.46 66.136C163.212 65.4 163.588 64.248 163.588 62.68V61.072C163.06 61.872 162.364 62.48 161.5 62.896C160.652 63.312 159.708 63.52 158.668 63.52C157.484 63.52 156.404 63.264 155.428 62.752C154.468 62.224 153.708 61.496 153.148 60.568C152.604 59.624 152.332 58.56 152.332 57.376C152.332 56.192 152.604 55.136 153.148 54.208C153.708 53.28 154.468 52.56 155.428 52.048C156.388 51.536 157.468 51.28 158.668 51.28C159.74 51.28 160.708 51.496 161.572 51.928C162.436 52.36 163.132 52.984 163.66 53.8V51.376H165.292ZM158.836 62.008C159.748 62.008 160.572 61.816 161.308 61.432C162.044 61.032 162.612 60.48 163.012 59.776C163.428 59.072 163.636 58.272 163.636 57.376C163.636 56.48 163.428 55.688 163.012 55C162.612 54.296 162.044 53.752 161.308 53.368C160.588 52.968 159.764 52.768 158.836 52.768C157.924 52.768 157.1 52.96 156.364 53.344C155.644 53.728 155.076 54.272 154.66 54.976C154.26 55.68 154.06 56.48 154.06 57.376C154.06 58.272 154.26 59.072 154.66 59.776C155.076 60.48 155.644 61.032 156.364 61.432C157.1 61.816 157.924 62.008 158.836 62.008Z" fill="white"/>
</svg>
